<?xml version="1.0" encoding="utf-8"?>
<!-- Generator: Adobe Illustrator 28.0.0, SVG Export Plug-In . SVG Version: 6.00 Build 0)  -->
<svg version="1.1" id="Layer_1" xmlns="http://www.w3.org/2000/svg" xmlns:xlink="http://www.w3.org/1999/xlink" x="0px" y="0px"
	 viewBox="0 0 199.25 199.25" style="enable-background:new 0 0 199.25 199.25;" xml:space="preserve">
<style type="text/css">
	.st0{fill:#FFFFFF;}
</style>
<g>
	<path d="M106.07,83.48c0.83-0.66,2.09-0.99,3.75-0.99c0.69,0,1.35,0.03,1.99,0.07c0.64,0.05,1.5,0.17,2.58,0.37v-9.79
		c-0.79-0.25-1.78-0.43-2.98-0.55c-1.2-0.12-2.32-0.18-3.35-0.18c-4.91,0-8.66,1.2-11.26,3.61c-2.6,2.41-3.9,5.86-3.9,10.38v5.01
		h-4.12h-3.76h-6.4V79.83c0-0.72-0.66-1.26-1.36-1.11l-8.92,1.82c-0.96,0.19-1.64,1.04-1.64,2.01v8.85h-7.36v9.2h7.36v17.3
		c0,4.02,1.15,7.07,3.46,9.13c2.31,2.06,5.69,3.09,10.16,3.09c1.23,0,2.62-0.11,4.2-0.33c1.57-0.22,2.9-0.5,3.98-0.85v-9.64
		c-1.18,0.34-2.11,0.56-2.8,0.66c-0.69,0.1-1.38,0.15-2.06,0.15c-1.82,0-3.1-0.34-3.86-1.03c-0.76-0.69-1.14-1.86-1.14-3.53v-14.94
		h6.4h3.76h4.12v28.78h9.87c1.13,0,2.05-0.92,2.05-2.05v-26.73h9.57v-9.2h-9.57v-4.78C104.81,85.18,105.23,84.14,106.07,83.48z"/>
	<path d="M161.02,100.66c0-35.28-29.93-63.7-65.74-61.19c-30.22,2.11-54.7,26.59-56.81,56.81c-2.5,35.8,25.92,65.73,61.2,65.73
		c7.58,0,14.99-1.37,21.99-4.06c0.12-0.05,2.5-0.96,5.18-2.14c1.05-0.46,1.51-1.71,1.02-2.75l-3.06-6.5c-0.47-1-1.66-1.46-2.67-1.01
		c-2.36,1.03-4.47,1.85-4.51,1.86c-6.22,2.39-12.82,3.5-19.59,3.29c-25.08-0.79-46-20.5-48.22-45.49
		c-2.63-29.64,20.75-54.6,49.86-54.6c27.6,0,50.06,22.46,50.06,50.06c0,2.46-0.19,4.88-0.54,7.26c-0.87,4.9-2.12,9.8-4.5,14.17
		c-1.04,1.95-3.64,3.94-6.4,3.85c-3.52,0.12-6.57-1.56-7.19-5.28c-0.21-0.97-0.17-1.09-0.18-2.39c-0.01-2.69-0.03-5.48-0.06-8.3
		V76.45c0-0.7-0.62-1.23-1.31-1.13l-8.87,1.37c-1,0.15-1.74,1.02-1.74,2.03v31.66c-0.03,2.68-0.05,5.33-0.06,7.89
		c-0.5,11.41,8.27,20.15,19.72,19.66c6.95-0.02,13.78-4.55,16.74-10.87c0.79-1.45,1.37-2.88,1.95-4.41
		c1.56-4.37,2.5-8.86,3.14-13.42c0,0-0.03,0-0.03,0C160.8,106.39,161.02,103.53,161.02,100.66z"/>
</g>
</svg>
